<svg xmlns:dc="http://purl.org/dc/elements/1.1/" xmlns:cc="http://creativecommons.org/ns#" xmlns:rdf="http://www.w3.org/1999/02/22-rdf-syntax-ns#" xmlns:svg="http://www.w3.org/2000/svg" xmlns="http://www.w3.org/2000/svg" xmlns:sodipodi="http://sodipodi.sourceforge.net/DTD/sodipodi-0.dtd" xmlns:inkscape="http://www.inkscape.org/namespaces/inkscape" viewBox="0 0 80 80" version="1.1" x="0px" y="0px"><g transform="matrix(0.19595101,0,0,0.19595101,8.5521957,0.76096999)" style="" fill="#000000"><path d="m 124.7,0 7.7,0 c 5.7,1.7 11.5,3.7 16.1,7.6 13.2,10.7 22.9,25.2 30.2,40.4 5.8,13.3 8.1,27.7 9.9,42 0.7,11 3.3,21.9 2.8,33 0,8.4 -0.6,17 -3.3,25 -4.3,12.1 -6.8,24.7 -11.2,36.8 -4.5,13.6 -10,27 -16.5,39.8 -2.8,6.1 -8.4,10.2 -12,15.7 -3.5,5 -7,10.3 -11.6,14.4 -4,3.6 -7.9,7.5 -12.1,10.9 -7.5,5.6 -14.7,11.8 -23.2,15.8 -6.5,2.9 -13.1,6.7 -20.5,6.4 -2.6,0.1 -5.3,-0.2 -7.9,-0.3 1.6,-4.4 3.5,-8.6 5.9,-12.5 1.7,-3 4.6,-4.8 7.1,-6.8 8,-6.1 15.4,-12.7 23.1,-19 2.6,-2.2 5.8,-3.7 7.9,-6.4 0.9,-2.2 -0.5,-5.9 -3.2,-5.5 -3.1,-0.1 -5.5,2 -7.8,3.8 -8.8,7.2 -17.3,14.8 -26.4,21.6 -2.9,2.3 -6.1,4.6 -7.9,8 -2.1,4 -3.9,8.1 -6.2,12 -8.2,-1.4 -16.8,-0.8 -24.8,-3.4 -7.7,-2.1 -14.7,-7.4 -18.6,-14.3 -3.1,-7.6 -3.9,-15.9 -3.5,-24 5.4,-3 11.3,-5 16.9,-7.5 20.2,-9.3 41.7,-15.2 63.1,-21 2.8,-0.4 4.7,-3.6 3.1,-6.1 -1.4,-2.3 -4.6,-2 -6.8,-1.5 -16.3,4.4 -32.4,9.4 -48.3,14.9 -9.9,4 -19.7,8.5 -29.6,12.6 C 12.9,227.6 9,222.6 5.8,217.1 2.6,212 1.8,205.9 0,200.3 l 0,-22.7 c 2.7,-9.4 7.2,-18.1 12.2,-26.5 5.6,0.2 11.2,1.4 16.8,2.1 13.9,1.6 27.8,2.8 41.7,4.4 10.8,1.4 21.6,3.1 32.4,4.5 2.3,0.6 5.4,-0.7 5.5,-3.3 0.7,-3.4 -3.2,-4.8 -5.8,-5.1 -11.9,-1.3 -23.6,-3.2 -35.5,-4.8 -18,-1.6 -36,-3.5 -53.9,-6.4 -2.1,-6.6 -2.6,-13.6 -2.8,-20.5 -0.4,-16.5 5.7,-32.7 15.9,-45.5 4.3,-6.1 10.3,-10.6 16.3,-15 6.9,6.4 13.7,12.8 20.6,19.1 6.7,6.4 14.4,11.6 21.6,17.4 6.3,5.2 13.9,8.2 21,12.1 4.3,2.1 8.4,4.9 13.1,6.1 3.7,0.8 5.8,-4.9 2.5,-6.8 C 113,103.6 103.1,100.1 94.4,94.6 88.8,90.6 83.5,86.2 78,82.1 70.7,76.7 64.5,70.2 57.8,64.2 54.7,61.3 51.4,58.8 48.6,55.6 48.7,53.7 49.4,51.9 50,50.1 53,42.3 54.6,33.7 60,27 63.8,20.9 69.8,16.8 75.5,12.5 83.9,7.2 94.2,8.3 103.7,8.4 c 4.9,13.5 8.3,27.6 12.7,41.2 1.2,3.3 3.3,6 5.2,8.8 7.6,11.1 15.2,22.2 22.6,33.4 3.8,5.8 9.8,9.6 15.2,13.8 2,1.8 4.7,1.1 7.1,0.8 -0.1,-2 0.9,-4.5 -0.8,-6.1 -4.5,-4.6 -10.7,-7.2 -14.3,-12.7 -7,-10.3 -14,-20.7 -21.1,-31 -2.7,-4 -5.9,-7.8 -7.2,-12.6 -3,-11 -6.4,-21.9 -9.5,-32.8 -0.3,-1.4 -1.1,-3.1 0.3,-4.3 C 117,4 121.4,2.7 124.7,0 z" style="" fill="#000000" stroke="#000000" stroke-width="0.09375000000000000"></path><path d="m 198.9,137 c 10.9,11.2 23.2,21 37,28.2 3.9,2.2 8.3,4.2 11,7.8 3,4.2 6.8,8.5 6.3,14 0.3,6.3 -5.3,10 -9.6,13.6 -2.9,0.5 -5.9,0.9 -8.8,1.8 -8.9,0.7 -18,-0.7 -26.9,1.1 -10.2,0.1 -20.1,2.9 -30.2,3.7 2.6,-7.8 5.8,-15.4 8.3,-23.3 4,-11.1 5.7,-22.8 10.2,-33.7 1.7,-4.2 1.9,-8.8 2.7,-13.2 z" style="" fill="#000000" stroke="#000000" stroke-width="0.09375000000000000"></path><path d="m 260.2,178.3 c 5.9,1.2 12,4.2 14.1,10.2 0.9,4.7 0.3,9.6 -0.1,14.4 -0.1,2.5 2.4,3.6 4.3,4.6 0.1,2.3 0,4.7 0,7 -4.7,2.6 -4.8,8.5 -5.1,13.3 -1.9,6.2 -4.4,12.8 -2.9,19.3 0.8,6.5 -2.1,13 0.2,19.3 1.1,2.2 2.5,4.3 3.4,6.6 -3.1,-2.2 -5.8,-5.2 -9.2,-6.9 -4.2,-2.2 -8.6,-4.1 -12.1,-7.2 -0.5,-3.8 2.5,-6.7 4.5,-9.5 1.8,-6.7 -2.6,-12.7 -2.9,-19.3 -0.6,-4.4 0.2,-8.8 0.1,-13.1 0.3,-2.7 -3.2,-3 -4.1,-5.1 -1.2,-2.1 -1,-5.1 0.8,-6.8 3.2,-3.4 7.8,-6.1 9,-10.9 2,-5.1 1,-10.6 0,-15.9 z" style="" fill="#000000" stroke="#000000" stroke-width="0.09375000000000000"></path><path d="m 186.6,251.9 c 14.6,-1.4 29.4,-0.1 43.9,1.9 3.7,0.6 7.2,1.8 10.8,2.7 7.3,1.9 13.2,7 19.9,10.2 5.6,2.6 10.5,6.8 14.3,11.8 1,5.2 -1,11.4 -5.9,14.1 -7.5,5.9 -17,8.4 -26.3,9.2 -17.8,2.6 -35.7,-0.3 -53.3,-2 -5.9,-0.5 -11.3,-3.2 -16.9,-4.7 -7.3,-1.8 -14.2,-4.9 -20.8,-8.4 -5.4,-3.8 -10.5,-9.8 -9.5,-16.8 1.2,-3.4 4.1,-5.8 6.9,-8.1 11,-6.8 24.2,-8.7 36.9,-9.9 m 12.7,13.1 c -5.5,0.4 -11.3,1.1 -15.7,4.6 -2.6,2.7 -1.2,7.2 1.7,9.1 5.4,4 12.3,4 18.5,5.6 4.3,1.1 8.8,1.3 13.2,1 5.3,-0.6 10.9,-0.8 15.4,-3.9 2.8,-1.5 4.4,-5.6 2.4,-8.3 -2.9,-4.7 -9,-5.7 -14,-6.9 -7.1,-1 -14.3,-2.4 -21.5,-1.2 z" style="" fill="#000000" stroke="#000000" stroke-width="0.09375000000000000"></path><path d="m 207.1,274 c 1.6,0 3.2,0 4.8,0.1 -0.2,0.6 -0.5,1.7 -0.7,2.2 -1.3,0.1 -2.6,0.2 -3.8,0.4 -0.1,-0.6 -0.3,-2 -0.3,-2.7 z" style="" fill="#000000" stroke="#000000" stroke-width="0.09375000000000000"></path><path d="m 126.1,285.9 c 4.9,-3 9.8,-5.8 15,-8.2 3.6,5.3 7.8,10.9 14.2,13 8.8,4.7 18.5,6.8 27.9,10 6.4,1.8 13.2,1.5 19.8,2.5 8,1.2 16,1.4 24,2.1 12.5,-0.9 25.4,-0.9 37,-6.3 4.1,-2.7 8.8,-5.1 11.7,-9.1 2,-3.9 2.3,-8.3 3,-12.5 4,0.6 7.6,2.3 11.6,3 1.4,0.4 3.2,0.2 4.1,1.5 -17.8,13.4 -36,26.4 -53.9,39.6 -1.5,1.1 -2.9,2.2 -4.5,3 -3.5,-0.1 -6.8,-1.6 -10.1,-2.5 -28.8,-8.6 -57.5,-17.3 -86.4,-25.7 -6.8,-2.4 -13.8,-4.3 -20.7,-6.4 1.9,-2.1 5,-2.5 7.3,-4 z" style="" fill="#000000" stroke="#000000" stroke-width="0.09375000000000000"></path><path d="m 286.8,297.8 c 1.4,-1 2.8,-1.9 4.2,-2.8 0.2,6.9 1.2,14.1 -1.3,20.7 -1.5,2.9 1,6.3 -0.7,9.1 -1.7,2.4 -4.2,4 -6.3,5.9 -13.2,11.4 -26.5,22.8 -39.8,34.2 -3.3,2.8 -6.4,6 -10,8.4 -2.6,0.4 -5,-1.1 -7.5,-1.7 -35.9,-11.5 -71.6,-23.4 -107.6,-34.5 -0.1,-2.6 -0.6,-5.3 0.4,-7.8 1.4,-4.1 -1,-8.2 -0.9,-12.3 -0.2,-4.1 2.5,-7.8 2.4,-11.9 0.3,-2.6 -1.4,-4.8 -2.4,-7.1 37.9,11.6 75.8,22.8 113.6,34.2 2,0.5 4,1.3 6.1,1.1 2.4,-0.8 4.4,-2.3 6.5,-3.8 14.4,-10.6 28.9,-21.1 43.3,-31.7 z" style="" fill="#000000" stroke="#000000" stroke-width="0.09375000000000000"></path><path d="m 237.5,380.4 c 19.1,-16.2 37.9,-32.9 57.1,-48.9 2.5,2.6 5.6,5 6.9,8.6 0,2.4 -1.1,4.8 -3,6.5 -7.8,7.4 -15.1,15.5 -23.6,22.4 -9.2,9.1 -18.6,18.1 -28.3,26.7 -1.9,2 -4.4,3.4 -7.1,4.3 l -12.8,0 c -8.1,-3.1 -16.3,-5.9 -24.6,-8.2 -25.4,-9.5 -51,-18.4 -76.5,-27.5 -6.8,-2 -13.5,-4.6 -19.6,-8.3 -5.5,-4.1 0.1,-14.4 6.5,-12.3 38.5,12.5 77,25 115.5,37.4 3.1,1.1 6.8,2 9.5,-0.7 z" style="" fill="#000000" stroke="#000000" stroke-width="0.09375000000000000"></path></g></svg>